<?xml version="1.0" encoding="utf-8"?>
<!-- Generator: Adobe Illustrator 24.0.1, SVG Export Plug-In . SVG Version: 6.00 Build 0)  -->
<svg version="1.1" id="Calque_1" xmlns="http://www.w3.org/2000/svg" xmlns:xlink="http://www.w3.org/1999/xlink" x="0px" y="0px"
	 viewBox="0 0 85 56.7" style="enable-background:new 0 0 85 56.7;" xml:space="preserve">
<style type="text/css">
	.st0{fill:#FFFFFF;}
	.st1{fill:#D9B657;}
</style>
<g>
	<g>
		<path d="M64.8,40.2c-4.1,0-7.4-3.3-7.4-7.4s3.3-7.4,7.4-7.4c4.1,0,7.4,3.3,7.4,7.4C72.2,36.9,68.8,40.2,64.8,40.2z M64.8,27.4
			c-3,0-5.5,2.4-5.5,5.5s2.4,5.5,5.5,5.5c3,0,5.5-2.4,5.5-5.5S67.8,27.4,64.8,27.4z"/>
		<path d="M64.8,33.7c-0.4,0-0.8-0.3-0.9-0.7c-0.2-0.5-3.7-12-4-13c-0.3-1.1-0.5-2-3.2-1.5c-0.5,0.1-1-0.3-1.1-0.8s0.3-1,0.8-1.1
			c4.4-0.7,5,1.8,5.3,2.9c0.3,1.1,4,12.9,4,13c0.2,0.5-0.1,1.1-0.6,1.2C65,33.7,64.9,33.7,64.8,33.7z"/>
		<path d="M44.9,20.6c-0.3,0-0.7-0.1-0.9-0.4c-0.4-0.4-0.6-1-0.4-1.5c0.1-0.3,0.5-0.9,1.6-0.9h5.1c0.5,0,1,0.4,1,1s-0.4,1-1,1h-2.4
			c-0.1,0-0.1,0-0.2,0c-0.3,0-0.8,0.2-1.2,0.4C46,20.4,45.4,20.6,44.9,20.6z"/>
		<path d="M52.3,35.4H34.1c-0.5,0-0.8-0.3-0.9-0.8s0.1-0.9,0.5-1.1L61.1,21c0.5-0.2,1.1,0,1.3,0.5c0.1,0.2,0.1,0.3,0.1,0.5
			c0,0.2,0,0.5-0.2,0.6L53,35C52.8,35.3,52.6,35.4,52.3,35.4z M38.5,33.5h13.2l6.8-9.2L38.5,33.5z"/>
		<path d="M52.3,35.4c-0.4,0-0.7-0.2-0.9-0.6L45,19.6c-0.2-0.5,0-1.1,0.5-1.3c0.5-0.2,1.1,0,1.3,0.5l6.3,15.2c0.2,0.5,0,1.1-0.5,1.3
			C52.5,35.4,52.4,35.4,52.3,35.4z"/>
		<g>
			<circle class="st0" cx="26.7" cy="34.1" r="5.1"/>
			<path d="M26.7,40.2c-3.4,0-6.1-2.7-6.1-6.1c0-3.4,2.7-6.1,6.1-6.1c3.4,0,6.1,2.7,6.1,6.1C32.8,37.5,30.1,40.2,26.7,40.2z
				 M26.7,30c-2.3,0-4.2,1.9-4.2,4.2s1.9,4.2,4.2,4.2c2.3,0,4.2-1.9,4.2-4.2S29,30,26.7,30z"/>
		</g>
		<g>
			<path class="st1" d="M39.5,18.7v12.5c0,1.8-1.4,3.2-3.2,3.2H17c-1.8,0-3.2-1.4-3.2-3.2V18.7H39.5z"/>
			<path d="M36.3,35.4H17c-2.3,0-4.2-1.9-4.2-4.2V18.7c0-0.5,0.4-1,1-1h25.7c0.5,0,1,0.4,1,1v12.5C40.5,33.5,38.6,35.4,36.3,35.4z
				 M14.8,19.7v11.5c0,1.2,1,2.2,2.2,2.2h19.3c1.2,0,2.2-1,2.2-2.2V19.7H14.8z"/>
		</g>
	</g>
</g>
</svg>
