<?xml version="1.0" encoding="utf-8"?>
<!-- Generator: Adobe Illustrator 24.0.1, SVG Export Plug-In . SVG Version: 6.00 Build 0)  -->
<svg version="1.1" id="Calque_1" xmlns="http://www.w3.org/2000/svg" xmlns:xlink="http://www.w3.org/1999/xlink" x="0px" y="0px"
	 viewBox="0 0 85 56.7" style="enable-background:new 0 0 85 56.7;" xml:space="preserve">
<style type="text/css">
	.st0{fill:#FFFFFF;}
	.st1{fill:#D9B657;}
</style>
<g>
	<path d="M21.9,41c-4.1,0-7.4-3.3-7.4-7.4s3.3-7.4,7.4-7.4c4.1,0,7.4,3.3,7.4,7.4S26,41,21.9,41z M21.9,28.2c-3,0-5.5,2.4-5.5,5.5
		s2.4,5.5,5.5,5.5c3,0,5.5-2.4,5.5-5.5S24.9,28.2,21.9,28.2z"/>
	<path d="M46.3,32.9c-0.4,0-0.8-0.3-0.9-0.7c-0.2-0.5-3.7-12-4-13c-0.3-1.1-0.5-2-3.2-1.5c-0.5,0.1-1-0.3-1.1-0.8
		c-0.1-0.5,0.3-1,0.8-1.1c4.4-0.7,5,1.8,5.3,2.9c0.3,1.1,4,12.9,4,13c0.2,0.5-0.1,1.1-0.6,1.2C46.5,32.9,46.4,32.9,46.3,32.9z"/>
	<path d="M51.4,34.6H21.9c-0.3,0-0.6-0.2-0.8-0.5c-0.2-0.3-0.2-0.6,0-0.9l5.3-10.7c0.2-0.5,0.8-0.7,1.3-0.4c0.5,0.2,0.7,0.8,0.4,1.3
		l-4.6,9.3h27.9c0.5,0,1,0.4,1,1S51.9,34.6,51.4,34.6z"/>
	<g>
		<path d="M24.7,20c-0.4,0-0.7-0.1-0.9-0.4c-0.4-0.4-0.6-1-0.4-1.5c0.1-0.3,0.5-0.9,1.6-0.9H30c0.5,0,1,0.4,1,1s-0.4,1-1,1h-2.4
			c-0.1,0-0.1,0-0.2,0c-0.3,0-0.8,0.2-1.2,0.3C25.7,19.8,25.1,20,24.7,20z"/>
	</g>
	<g>
		<path class="st0" d="M51.6,34.9c0,2.8,2.3,5.1,5.1,5.1c2.8,0,5.1-2.3,5.1-5.1c0-2.8-2.3-5.1-5.1-5.1
			C53.9,29.8,51.6,32.1,51.6,34.9z"/>
		<path d="M56.7,41c-3.4,0-6.1-2.7-6.1-6.1c0-3.4,2.7-6.1,6.1-6.1s6.1,2.7,6.1,6.1C62.8,38.3,60.1,41,56.7,41z M56.7,30.8
			c-2.3,0-4.2,1.9-4.2,4.2s1.9,4.2,4.2,4.2c2.3,0,4.2-1.9,4.2-4.2S59,30.8,56.7,30.8z"/>
	</g>
	<g>
		<path class="st1" d="M43.9,19.6v12.5c0,1.8,1.4,3.2,3.2,3.2h19.3c1.8,0,3.2-1.4,3.2-3.2V19.6H43.9z"/>
		<path d="M66.4,36.2H47.1c-2.3,0-4.2-1.9-4.2-4.2V19.6c0-0.5,0.4-1,1-1h25.7c0.5,0,1,0.4,1,1v12.5C70.5,34.4,68.7,36.2,66.4,36.2z
			 M44.9,20.5v11.5c0,1.2,1,2.2,2.2,2.2h19.3c1.2,0,2.2-1,2.2-2.2V20.5H44.9z"/>
	</g>
	<path d="M40,34.6c-9.4,0-14.4-13.7-14.7-14.3c-0.2-0.5,0.1-1.1,0.6-1.2c0.5-0.2,1.1,0.1,1.2,0.6c0,0.1,4.8,13,12.8,13
		c0,0,0.1,0,0.1,0c0.5,0,1,0.4,1,1c0,0.5-0.4,1-1,1C40.1,34.6,40,34.6,40,34.6z"/>
</g>
</svg>
